<?xml version="1.0" encoding="UTF-8" standalone="no"?>
<svg width="1151px" height="308px" viewBox="0 0 1151 308" version="1.1" xmlns="http://www.w3.org/2000/svg" xmlns:xlink="http://www.w3.org/1999/xlink" xmlns:sketch="http://www.bohemiancoding.com/sketch/ns">
    <!-- Generator: Sketch 3.1.1 (8761) - http://www.bohemiancoding.com/sketch -->
    <title>Fill 8</title>
    <desc>Created with Sketch.</desc>
    <defs></defs>
    <g id="Page-1" stroke="none" stroke-width="1" fill="none" fill-rule="evenodd" sketch:type="MSPage">
        <path d="M176.763316,110.068597 C170.431826,102.123608 162.35171,95.7034138 152.501107,90.8590858 C142.650505,86.0001665 130.825411,83.5707068 117.011253,83.5707068 C101.127885,83.5707068 87.3865864,87.6198063 75.7727846,95.7034138 C64.1589828,103.816204 55.9987206,113.154668 51.2919979,123.747987 L50.4249701,123.747987 L50.4249701,89.7647346 L0.144640075,89.7647346 L0.144640075,301.71138 L53.0624834,301.71138 L53.0624834,185.14109 C53.0624834,178.064285 54.0898021,171.08962 56.1517255,164.166025 C58.206363,157.249726 61.2227456,151.143246 65.1935875,145.83929 C69.1571435,140.535335 74.2281636,136.187113 80.3993619,132.809215 C86.5778461,129.431318 93.9220821,127.72413 102.461214,127.72413 C110.978487,127.72413 117.805421,129.496979 122.956587,133.028086 C128.09318,136.566488 132.144168,141.046032 135.087691,146.495901 C138.016642,151.94577 139.932846,158.059545 140.814446,164.822636 C141.703332,171.607613 142.147775,178.064285 142.147775,184.251018 L142.147775,301.71138 L195.065618,301.71138 L195.065618,169.236519 C195.065618,158.351372 193.571999,147.750757 190.643047,137.441969 C187.70681,127.147772 183.072947,118.013587 176.763316,110.068597 M411.713294,114.04474 C401.418249,104.334197 389.221571,96.8269477 375.108689,91.5229922 C360.995807,86.2336281 346.001325,83.5707068 330.125244,83.5707068 C314.256448,83.5707068 299.25468,86.2336281 285.149084,91.5229922 C271.043488,96.8269477 258.832239,104.334197 248.551765,114.04474 C238.249434,123.747987 230.096458,135.457545 224.078265,149.158822 C218.045499,162.838212 215.036403,178.064285 215.036403,194.851633 C215.036403,211.624389 218.045499,226.93801 224.078265,240.770609 C230.096458,254.6178 238.249434,266.45868 248.551765,276.322432 C258.832239,286.186184 271.043488,293.912304 285.149084,299.500791 C299.25468,305.096573 314.256448,307.883521 330.125244,307.883521 C346.001325,307.883521 360.995807,305.096573 375.108689,299.500791 C389.221571,293.912304 401.418249,286.186184 411.713294,276.322432 C422.001053,266.45868 430.15403,254.6178 436.186795,240.770609 C442.204988,226.93801 445.221371,211.624389 445.221371,194.851633 C445.221371,178.064285 442.204988,162.838212 436.186795,149.158822 C430.15403,135.457545 422.001053,123.747987 411.713294,114.04474 L411.713294,114.04474 Z M387.67695,219.576674 C385.163298,227.835378 381.425607,235.189418 376.42016,241.653386 C371.429285,248.131945 365.112368,253.428605 357.462122,257.550661 C349.819162,261.680013 340.719013,263.730098 330.125244,263.730098 C319.538761,263.730098 310.424039,261.680013 302.788365,257.550661 C295.130834,253.428605 288.821202,248.131945 283.823042,241.653386 C278.824881,235.189418 275.079904,227.835378 272.588109,219.576674 C270.081743,211.332562 268.835846,203.08845 268.835846,194.851633 C268.835846,186.607521 270.081743,178.443661 272.588109,170.345462 C275.079904,162.247263 278.824881,154.973475 283.823042,148.48762 C288.821202,142.016357 295.130834,136.785358 302.788365,132.809215 C310.424039,128.833073 319.538761,126.848649 330.125244,126.848649 C340.719013,126.848649 349.819162,128.833073 357.462122,132.809215 C365.112368,136.785358 371.429285,142.016357 376.42016,148.48762 C381.425607,154.973475 385.163298,162.247263 387.67695,170.345462 C390.161459,178.443661 391.421928,186.607521 391.421928,194.851633 C391.421928,203.08845 390.161459,211.332562 387.67695,219.576674 L387.67695,219.576674 Z M779.405967,110.068597 C773.067192,102.123608 764.994361,95.7034138 755.143759,90.8590858 C745.300442,86.0001665 733.468062,83.5707068 719.639332,83.5707068 C703.76325,83.5707068 689.941806,87.0288566 678.196857,93.9524519 C666.430051,100.876047 657.023891,110.80546 649.978379,123.747987 C644.091333,111.688237 635.705206,101.977694 624.827285,94.6163583 C613.95665,87.2623182 600.273639,83.5707068 583.829254,83.5707068 C575.290122,83.5707068 567.516015,84.686945 560.448645,86.8829431 C553.403133,89.0935326 547.144503,92.1139419 541.716472,95.9368754 C536.273868,99.7671046 531.567146,104.04237 527.596304,108.74808 C523.632748,113.461086 520.470646,118.458623 518.124571,123.747987 L517.242971,123.747987 L517.242971,89.7647346 L466.962641,89.7647346 L466.962641,301.71138 L519.88777,301.71138 L519.88777,185.14109 C519.88777,178.064285 520.827658,171.08962 522.751148,164.166025 C524.667352,157.249726 527.443299,151.143246 531.115417,145.83929 C534.794821,140.535335 539.574403,136.187113 545.461449,132.809215 C551.333924,129.431318 558.255575,127.72413 566.189972,127.72413 C579.698121,127.72413 589.628868,132.079648 595.953072,140.754205 C602.262703,149.450649 605.439377,160.401457 605.439377,173.650402 L605.439377,301.71138 L658.342648,301.71138 L658.342648,186.016571 C658.342648,179.25348 659.231534,172.410138 660.994733,165.486542 C662.750647,158.584834 665.548451,152.310554 669.366288,146.722067 C673.191411,141.140876 678.043852,136.566488 683.923613,133.028086 C689.803373,129.496979 696.863457,127.72413 705.096579,127.72413 C713.613853,127.72413 720.448072,129.496979 725.599238,133.028086 C730.735831,136.566488 734.779533,141.046032 737.730342,146.495901 C740.659293,151.94577 742.568212,158.059545 743.449811,164.822636 C744.338697,171.607613 744.775854,178.064285 744.775854,184.251018 L744.775854,301.71138 L797.700983,301.71138 L797.700983,169.236519 C797.700983,158.351372 796.229222,147.750757 793.292985,137.441969 C790.349461,127.147772 785.715598,118.013587 779.405967,110.068597 M830.910336,89.7647346 L883.82818,89.7647346 L883.82818,301.71138 L830.910336,301.71138 L830.910336,89.7647346 Z M856.921172,0.721024962 C847.230861,0.721024962 839.209031,3.89464345 832.892114,10.2199934 C826.567911,16.5453434 823.413095,23.9869316 823.413095,32.5082796 C823.413095,41.066106 826.567911,48.4931029 832.892114,54.8111572 C839.209031,61.1510985 847.230861,64.3028299 856.921172,64.3028299 C866.626055,64.3028299 874.786318,61.297012 881.394673,55.2561933 C888.0176,49.2226703 891.318134,41.6424643 891.318134,32.5082796 C891.318134,23.4032776 888.0176,15.8084802 881.394673,9.76766159 C874.786318,3.74872996 866.626055,0.721024962 856.921172,0.721024962 M1091.65986,112.498057 C1082.54514,102.940723 1071.74008,95.7034138 1059.24467,90.8590858 C1046.74927,86.0001665 1033.16098,83.5707068 1018.45793,83.5707068 C1002.58185,83.5707068 987.805949,86.3065848 974.144796,91.7491581 C960.476357,97.1990271 948.629405,104.837599 938.633084,114.701351 C928.651334,124.579694 920.775224,136.493531 915.055754,150.464748 C909.307141,164.457852 906.451049,179.990344 906.451049,197.054927 C906.451049,214.425928 909.307141,229.95842 915.055754,243.63781 C920.775224,257.331791 928.716908,268.895435 938.858948,278.306856 C949.008274,287.732867 960.979087,295.021247 974.800531,300.164697 C988.607404,305.315444 1003.7476,307.883521 1020.22113,307.883521 C1059.90041,307.883521 1090.19538,293.751799 1111.06234,265.495651 L1075.78378,237.239503 C1069.89673,245.782738 1062.39949,252.480167 1053.29934,257.331791 C1044.18462,262.19071 1033.00797,264.62017 1019.77669,264.62017 C1012.13373,264.62017 1004.7895,263.292357 997.729411,260.644027 C990.676613,257.995697 984.345124,254.391634 978.771373,249.824542 C973.190337,245.257449 968.694907,239.814876 965.321513,233.489526 C961.933547,227.15688 959.959055,220.17492 959.368893,212.49987 L1120.32278,212.49987 C1120.61422,210.157958 1120.76722,207.808751 1120.76722,205.452248 L1120.76722,198.382739 C1120.76722,179.25348 1118.18071,162.553681 1113.0514,148.26875 C1107.90024,133.99841 1100.76001,122.069982 1091.65986,112.498057 L1091.65986,112.498057 Z M959.368893,174.533179 C960.549216,159.525976 966.647555,147.24006 977.671195,137.668135 C988.694835,128.103505 1002.1447,123.310247 1018.02078,123.310247 C1026.54534,123.310247 1033.96243,124.725608 1040.28664,127.512556 C1046.61084,130.314095 1051.82029,134.064071 1055.94414,138.777077 C1060.05341,143.482787 1063.06251,148.925361 1064.986,155.112093 C1066.88763,161.291529 1067.84938,167.762793 1067.84938,174.533179 L959.368893,174.533179 L959.368893,174.533179 Z M1129.17521,56.6788499 L1136.67973,56.6788499 L1136.67973,77.7998281 L1143.09865,77.7998281 L1143.09865,56.6788499 L1150.61047,56.6788499 L1150.61047,51.1852068 L1129.17521,51.1852068 L1129.17521,56.6788499" id="Fill-8" fill="#FFFFFF" sketch:type="MSShapeGroup"></path>
    </g>
</svg>
